<svg width="16" height="16" fill="none" xmlns="http://www.w3.org/2000/svg"><rect x=".5" y=".5" width="15" height="15" rx="2.5" stroke="#fff"/><path d="M12.946 10.155c-.012-.027-.024-.047-.035-.066-.173-.311-.504-.696-.996-1.15l-.012-.011-.004-.004-.003-.004h-.004a6.489 6.489 0 01-.423-.427c-.108-.138-.131-.28-.073-.423.042-.108.196-.335.469-.68l.338-.443c.6-.8.862-1.308.781-1.53l-.03-.05c-.02-.032-.074-.062-.162-.085a.781.781 0 00-.335-.012l-1.5.012a.194.194 0 00-.104.003c-.046.012-.069.016-.069.016l-.027.011-.019.016a.238.238 0 00-.058.054.35.35 0 00-.05.092c-.165.42-.35.811-.557 1.173-.127.215-.246.4-.354.561a2.921 2.921 0 01-.27.35 2.514 2.514 0 01-.195.181c-.058.046-.104.066-.135.058a.93.93 0 00-.089-.02.307.307 0 01-.115-.126.58.58 0 01-.061-.204c-.012-.08-.016-.15-.02-.212 0-.057 0-.142.004-.25.004-.107.004-.18.004-.219 0-.13.004-.277.008-.43.004-.154.011-.277.011-.366.004-.088.004-.185.004-.285 0-.1-.008-.18-.02-.238a.832.832 0 00-.053-.165.257.257 0 00-.104-.143.51.51 0 00-.173-.069A3.442 3.442 0 007.811 5c-.646-.007-1.061.035-1.246.128a.634.634 0 00-.196.157c-.061.074-.073.116-.027.124.208.03.354.107.442.223l.031.061c.023.046.05.123.073.239.023.115.039.242.046.38.02.254.02.47 0 .65a5.85 5.85 0 01-.05.423.752.752 0 01-.069.247c-.03.061-.05.1-.061.115-.012.011-.02.02-.027.023a.342.342 0 01-.139.027c-.05 0-.107-.023-.177-.073a1.125 1.125 0 01-.215-.2 2.306 2.306 0 01-.254-.358 6.715 6.715 0 01-.292-.542l-.085-.15a8.474 8.474 0 01-.211-.423 7.036 7.036 0 01-.239-.539.349.349 0 00-.127-.165l-.027-.02a.609.609 0 00-.2-.077l-1.426.012c-.147 0-.247.035-.297.1l-.023.031c-.011.016-.015.042-.015.08 0 .04.012.086.03.143.208.489.435.962.682 1.416.246.453.457.819.638 1.1.18.276.365.538.554.784.188.246.311.404.373.473.061.07.107.123.142.158l.13.127c.085.084.205.184.366.3.162.115.339.23.535.342.196.111.423.204.684.277.262.073.516.1.762.085h.6a.428.428 0 00.277-.116l.019-.027a.553.553 0 00.058-.238c-.004-.15.007-.285.034-.404a.992.992 0 01.089-.27.69.69 0 01.2-.23.376.376 0 01.042-.02c.085-.026.18 0 .292.082.112.08.22.18.32.303.1.12.219.254.357.404.139.15.262.262.366.335l.103.061c.07.043.162.081.27.116a.612.612 0 00.292.027l1.335-.02a.62.62 0 00.307-.065c.073-.042.116-.092.13-.142a.389.389 0 00.005-.177.86.86 0 00-.046-.143z" fill="#fff"/></svg>