<svg width="16" height="16" fill="none" xmlns="http://www.w3.org/2000/svg"><path fill-rule="evenodd" clip-rule="evenodd" d="M3 0a3 3 0 00-3 3v10a3 3 0 003 3h4.445V9.91H5.62a.286.286 0 01-.286-.285V7.32c0-.157.129-.286.286-.286h1.826V5.448C7.445 3.353 8.764 2 10.805 2h1.815a.29.29 0 01.286.286v2.14a.286.286 0 01-.286.287h-1.225c-.846 0-.998.326-.998.974v1.347h2.135c.076 0 .152.03.204.082a.302.302 0 01.082.204v2.305a.286.286 0 01-.286.285h-2.135V16H13a3 3 0 003-3V3a3 3 0 00-3-3H3z" fill="#fff"/></svg>