<svg width="24" height="24" fill="none" xmlns="http://www.w3.org/2000/svg"><path d="M4.878 13.333a2.253 2.253 0 011.583-.657c.568 0 1.15.217 1.584.657l1.053 1.053c.15.15.336.217.53.217a.765.765 0 00.53-.216l4.229-4.228a.734.734 0 00.216-.53.765.765 0 00-.216-.531l-1.054-1.053a2.253 2.253 0 01-.657-1.584c0-.567.217-1.15.657-1.583l4.22-4.22A2.222 2.222 0 0119.138 0c.575 0 1.15.217 1.584.657l2.114 2.114A3.825 3.825 0 0124 5.557c-.023 2.025-1.285 4.02-2.801 5.931-1.524 1.898-3.369 3.683-4.699 5.012-1.337 1.337-3.114 3.175-5.012 4.699-1.904 1.516-3.906 2.778-5.93 2.8a3.825 3.825 0 01-2.787-1.164L.657 20.72A2.253 2.253 0 010 19.137c0-.567.217-1.15.657-1.583l4.22-4.22zm14.79-11.622a.765.765 0 00-.53-.217.765.765 0 00-.531.217l-4.228 4.227a.733.733 0 00-.217.53c0 .195.075.382.217.531l.53.53 5.289-5.288-.53-.53zM3.824 21.78c.538.53 1.069.718 1.733.725 1.337.022 3.205-1.016 4.998-2.473 1.8-1.449 3.548-3.249 4.892-4.593 1.345-1.345 3.145-3.093 4.594-4.893 1.45-1.785 2.487-3.66 2.465-4.99-.008-.664-.202-1.195-.725-1.733l-.53-.53-5.386 5.386c.142.306.24.62.232.948 0 .568-.217 1.15-.657 1.584l-4.228 4.228a2.254 2.254 0 01-1.584.657c-.328 0-.65-.09-.948-.232L3.294 21.25l.53.53zm-2.113-2.113l.53.53 5.28-5.281-.53-.53a.733.733 0 00-.53-.217.765.765 0 00-.53.216l-4.228 4.228a.742.742 0 00.007 1.053z" fill="#F07A39"/></svg>